<svg width="66" height="66" viewBox="0 0 66 66" fill="none" xmlns="http://www.w3.org/2000/svg">
<path d="M17.0773 6.25H46.2004C52.1385 6.25019 56.9728 11.0843 56.9728 17.0225V34.54C56.9728 40.4794 52.1648 45.3123 46.2004 45.3125H36.383C34.4563 45.3125 32.883 46.8858 32.883 48.8125V51.0674C32.883 52.9941 34.4563 54.5674 36.383 54.5674H42.5705C43.2284 54.5676 43.7724 55.1116 43.7726 55.7695C43.7726 56.4277 43.2286 56.9724 42.5705 56.9727H20.7629C20.1046 56.9727 19.5597 56.4278 19.5597 55.7695C19.56 55.1115 20.1047 54.5674 20.7629 54.5674H26.9504C28.8769 54.5672 30.4504 52.994 30.4504 51.0674V48.8125C30.4504 46.8859 28.8769 45.3127 26.9504 45.3125H17.05C11.1106 45.3125 6.27753 40.5046 6.27751 34.54V17.0225C6.27753 11.0854 11.1105 6.2501 17.0773 6.25Z" fill="white" stroke="black" stroke-width="1.5"/>
<path opacity="0.4" d="M49.775 52.855C49.775 54.5325 48.4275 55.88 46.75 55.88C45.0725 55.88 43.725 54.5325 43.725 52.855C43.725 51.1775 45.0725 49.83 46.75 49.83C48.4275 49.83 49.775 51.205 49.775 52.855Z" fill="white"/>
<path d="M39.4627 26.625H54.0096C56.3664 26.625 57.8153 27.0501 58.6942 27.9346C59.5739 28.8202 59.9998 30.2842 59.9998 32.6699V53.9277C59.9998 56.2971 59.5686 57.7622 58.6844 58.6523C57.8011 59.5415 56.3504 59.9727 54.0096 59.9727H39.4627C37.1059 59.9727 35.657 59.5475 34.7782 58.6631C33.8984 57.7774 33.4725 56.3134 33.4725 53.9277V32.6699C33.4725 30.3007 33.9038 28.8354 34.7879 27.9453C35.6712 27.0561 37.1219 26.625 39.4627 26.625ZM46.7498 49.3301C44.7963 49.3302 43.2254 50.9019 43.2254 52.8555C43.2257 54.8088 44.7964 56.3798 46.7498 56.3799C48.7033 56.3799 50.275 54.8089 50.2752 52.8555C50.2752 50.9018 48.7035 49.3301 46.7498 49.3301Z" fill="#342EE8" stroke="black"/>
</svg>
