<svg width="66" height="66" viewBox="0 0 66 66" fill="none" xmlns="http://www.w3.org/2000/svg">
<path d="M33 6.25C47.7736 6.25 59.75 18.2264 59.75 33C59.75 47.7736 47.7736 59.75 33 59.75C18.2264 59.75 6.25 47.7736 6.25 33C6.25 18.2264 18.2264 6.25 33 6.25Z" stroke="black" stroke-width="1.5"/>
<path d="M43.2025 43.8075C42.845 43.8075 42.4875 43.725 42.1575 43.505L33.6325 38.4175C31.515 37.1525 29.9475 34.375 29.9475 31.9275V20.6525C29.9475 19.525 30.8825 18.59 32.01 18.59C33.1375 18.59 34.0725 19.525 34.0725 20.6525V31.9275C34.0725 32.9175 34.8975 34.375 35.75 34.87L44.275 39.9575C45.265 40.535 45.5675 41.8 44.99 42.79C44.5775 43.45 43.89 43.8075 43.2025 43.8075Z" fill="#342EE8"/>
</svg>
