<svg width="66" height="66" viewBox="0 0 66 66" fill="none" xmlns="http://www.w3.org/2000/svg">
<path d="M37.4918 7.42059C39.2518 6.10652 41.8476 5.85361 45.8571 6.90106L46.6783 7.12762C52.4004 8.81637 57.186 13.6026 58.8737 19.3249V19.3259C60.2032 23.8028 59.9778 26.622 58.5338 28.4684L58.5289 28.4743L58.524 28.4811C57.6767 29.6148 56.4678 30.2721 55.1315 30.6452C53.7896 31.0198 52.3644 31.0954 51.15 31.0954H43.2574C40.3744 31.0954 38.3255 30.2796 36.983 28.78C35.6269 27.265 34.8776 24.9254 34.8776 21.6423V14.7946C34.8776 12.2749 35.2068 9.12836 37.4918 7.42059Z" fill="#342EE8" stroke="black" stroke-width="1.5"/>
<path d="M26.4152 13.8339C27.2463 13.7245 28.1269 13.9891 28.759 14.5555V14.5565L28.7687 14.5643C29.4275 15.1352 29.8029 15.9725 29.8029 16.83V26.6747C29.8029 31.9289 34.0712 36.1971 39.3254 36.1971H49.1701C49.9739 36.1972 50.7598 36.5273 51.3254 37.1112L51.4357 37.2313L51.4445 37.2411C52.0117 37.8739 52.2762 38.7278 52.1662 39.5868V39.5878C51.3678 45.8417 47.9325 51.5983 42.7619 55.3563L42.7599 55.3573C38.7923 58.2598 34.1346 59.7499 29.3146 59.7499C27.8482 59.7499 26.3854 59.6171 24.925 59.3251V59.3241L24.9162 59.3231L24.4875 59.2382C15.5047 57.3637 8.38018 50.1244 6.67694 41.1112V41.1102C5.47731 34.7648 6.86304 28.431 10.6437 23.2391V23.2382C14.4017 18.0676 20.1584 14.6323 26.4123 13.8339H26.4152Z" stroke="black" stroke-width="1.5"/>
</svg>
